# xmcd CD database file
#
# Track frame offsets:
#	150
#	8564
#	23647
#	38792
#	53494
#	66639
#	80764
#	92464
#	99949
#	113152
#	132672
#
# Disc length: 1907 seconds
#
# Revision: 0
# Processed by: cddbd v1.5.1PL0 Copyright (c) Steve Scherf et al.
# Submitted via: CDex 1.51
#
DISCID=8407710b
DTITLE=Dale Hopkins - Old'n In The Way
DYEAR=2001
DGENRE=Country
TTITLE0=01 Sally Gooden
TTITLE1=01 Ice Castles
TTITLE2=03 Bodines Waltz
TTITLE3=04 Listen To The Mocking Bird
TTITLE4=05  Set Your Fields On Fire
TTITLE5=06 Back Up And Push
TTITLE6=07 Cassidy Rose Waltz
TTITLE7=08 Hoedown From Hell
TTITLE8=09 Sweet Bunch Of Daisies
TTITLE9=10 What A Friend We Have In Jesus
TTITLE10=11 Sally Gooden - Reprise
EXTD=YEAR: 2001
EXTT0=
EXTT1=
EXTT2=
EXTT3=
EXTT4=
EXTT5=
EXTT6=
EXTT7=
EXTT8=
EXTT9=
EXTT10=
PLAYORDER=
